<svg xmlns="http://www.w3.org/2000/svg" viewBox="0 0 512 512" width="512" height="512">
  <defs>
    <linearGradient id="bg" x1="0%" y1="0%" x2="100%" y2="100%">
      <stop offset="0%" stop-color="#0e7490"/>
      <stop offset="100%" stop-color="#0c4a6e"/>
    </linearGradient>
    <linearGradient id="pageL" x1="0%" y1="0%" x2="0%" y2="100%">
      <stop offset="0%" stop-color="#f8fafc"/>
      <stop offset="100%" stop-color="#cbd5e1"/>
    </linearGradient>
    <linearGradient id="pageR" x1="0%" y1="0%" x2="0%" y2="100%">
      <stop offset="0%" stop-color="#ffffff"/>
      <stop offset="100%" stop-color="#e2e8f0"/>
    </linearGradient>
    <linearGradient id="bookmark" x1="0%" y1="0%" x2="0%" y2="100%">
      <stop offset="0%" stop-color="#5eead4"/>
      <stop offset="100%" stop-color="#14b8a6"/>
    </linearGradient>
    <filter id="shadow" x="-20%" y="-20%" width="140%" height="140%">
      <feGaussianBlur in="SourceAlpha" stdDeviation="6"/>
      <feOffset dx="0" dy="4" result="offsetblur"/>
      <feComponentTransfer><feFuncA type="linear" slope="0.3"/></feComponentTransfer>
      <feMerge><feMergeNode/><feMergeNode in="SourceGraphic"/></feMerge>
    </filter>
  </defs>

  <!-- rounded square background -->
  <rect width="512" height="512" rx="96" ry="96" fill="url(#bg)"/>

  <!-- subtle radial highlight -->
  <circle cx="180" cy="160" r="180" fill="#ffffff" opacity="0.06"/>

  <!-- open book -->
  <g filter="url(#shadow)" transform="translate(256 280)">
    <!-- left page -->
    <path d="M -180 -90 Q -90 -110 -8 -90 L -8 100 Q -90 80 -180 100 Z"
          fill="url(#pageL)" stroke="#94a3b8" stroke-width="2"/>
    <!-- right page -->
    <path d="M 180 -90 Q 90 -110 8 -90 L 8 100 Q 90 80 180 100 Z"
          fill="url(#pageR)" stroke="#94a3b8" stroke-width="2"/>

    <!-- spine shadow -->
    <path d="M -8 -90 L -8 100 L 8 100 L 8 -90 Z" fill="#475569" opacity="0.25"/>

    <!-- text lines on left page -->
    <g stroke="#64748b" stroke-width="4" stroke-linecap="round" opacity="0.7">
      <line x1="-150" y1="-50" x2="-30" y2="-58"/>
      <line x1="-150" y1="-25" x2="-50" y2="-32"/>
      <line x1="-150" y1="0" x2="-40" y2="-7"/>
      <line x1="-150" y1="25" x2="-60" y2="18"/>
      <line x1="-150" y1="50" x2="-45" y2="43"/>
    </g>
    <!-- text lines on right page -->
    <g stroke="#64748b" stroke-width="4" stroke-linecap="round" opacity="0.7">
      <line x1="30" y1="-58" x2="150" y2="-50"/>
      <line x1="50" y1="-32" x2="150" y2="-25"/>
      <line x1="40" y1="-7" x2="150" y2="0"/>
      <line x1="60" y1="18" x2="150" y2="25"/>
      <line x1="45" y1="43" x2="150" y2="50"/>
    </g>
  </g>

  <!-- bookmark ribbon -->
  <g filter="url(#shadow)">
    <path d="M 320 100 L 380 100 L 380 250 L 350 220 L 320 250 Z"
          fill="url(#bookmark)" stroke="#0d9488" stroke-width="2"/>
  </g>

  <!-- small star/spark for "daily" -->
  <g transform="translate(140 130)" opacity="0.9">
    <path d="M 0 -22 L 6 -6 L 22 0 L 6 6 L 0 22 L -6 6 L -22 0 L -6 -6 Z"
          fill="#5eead4"/>
  </g>
</svg>
